<svg width="17" height="21" viewBox="0 0 17 21" fill="none" xmlns="http://www.w3.org/2000/svg">
<path d="M16.0735 10.1376L15.5865 10.024L15.5861 10.0259L16.0735 10.1376ZM9.89426 19.5779L10.193 19.9788L10.1931 19.9788L9.89426 19.5779ZM9.88779 19.5827L9.48093 19.8733L9.77745 20.2885L10.1865 19.9837L9.88779 19.5827ZM9.88775 19.5827L10.2946 19.2921L10.0028 18.8835L9.59547 19.177L9.88775 19.5827ZM9.80204 19.6455L10.0984 20.0482L10.0984 20.0482L9.80204 19.6455ZM9.65938 19.7498L9.36863 19.343L9.36861 19.343L9.65938 19.7498ZM9.63741 19.7655L9.88266 20.2012L9.9062 20.1879L9.92818 20.1722L9.63741 19.7655ZM9.61389 19.7787L9.36864 19.343L9.36863 19.343L9.61389 19.7787ZM7.75205 19.6629L8.05141 19.2624L8.04731 19.2594L7.75205 19.6629ZM1.42787 10.0222L1.9158 9.913L1.91579 9.91298L1.42787 10.0222ZM1.42715 10.019L1.29697 9.53626L0.834597 9.66095L0.939236 10.1283L1.42715 10.019ZM1.42717 10.019L1.55735 10.5018L2.01667 10.3779L1.9158 9.913L1.42717 10.019ZM2.40408 9.80539L1.91541 9.91127L1.91617 9.91468L2.40408 9.80539ZM8.34473 18.8574L8.04954 19.261L8.04957 19.261L8.34473 18.8574ZM8.3497 18.8611L8.7497 19.1611L9.05334 18.7562L8.64485 18.4575L8.3497 18.8611ZM8.34967 18.8611L7.94967 18.5611L7.64977 18.961L8.04954 19.261L8.34967 18.8611ZM9.10229 18.9187L9.33323 19.3622L9.36537 19.3454L9.39475 19.3242L9.10229 18.9187ZM9.18779 18.8559L9.48619 19.2571L9.48619 19.2571L9.18779 18.8559ZM9.29978 18.7738L9.59226 19.1794L9.59868 19.1746L9.29978 18.7738ZM15.099 9.91328L14.6118 9.80049L14.6116 9.80157L15.099 9.91328ZM15.0994 9.91131L14.6125 9.79761L14.6123 9.79852L15.0994 9.91131ZM8.76505 0.5C4.35501 0.5 0.769897 4.05616 0.769897 8.454H1.7699C1.7699 4.61406 4.90167 1.5 8.76505 1.5V0.5ZM16.7602 8.454C16.7602 4.05616 13.1751 0.5 8.76505 0.5V1.5C12.6284 1.5 15.7602 4.61406 15.7602 8.454H16.7602ZM16.5604 10.2512C16.6972 9.66492 16.7602 9.06147 16.7602 8.454H15.7602C15.7602 8.99264 15.7043 9.51929 15.5865 10.024L16.5604 10.2512ZM10.1931 19.9788C13.345 17.6297 15.6525 14.2108 16.5608 10.2493L15.5861 10.0259C14.7326 13.7485 12.5632 16.9652 9.59547 19.177L10.1931 19.9788ZM10.1865 19.9837L10.193 19.9788L9.59552 19.177L9.58905 19.1818L10.1865 19.9837ZM9.48089 19.8733L9.48093 19.8733L10.2947 19.2921L10.2946 19.2921L9.48089 19.8733ZM10.0984 20.0482C10.1361 20.0205 10.1659 19.9985 10.18 19.9883L9.59547 19.177C9.57609 19.191 9.5408 19.2169 9.50568 19.2428L10.0984 20.0482ZM9.95013 20.1565C9.98703 20.1302 10.049 20.0846 10.0984 20.0482L9.50569 19.2428C9.45332 19.2813 9.39842 19.3217 9.36863 19.343L9.95013 20.1565ZM9.92818 20.1722L9.95014 20.1565L9.36861 19.343L9.34665 19.3587L9.92818 20.1722ZM9.85914 20.2144L9.88266 20.2012L9.39217 19.3298L9.36864 19.343L9.85914 20.2144ZM8.77204 20.5C9.16902 20.5 9.54092 20.3936 9.85915 20.2144L9.36863 19.343C9.19272 19.442 8.98886 19.5 8.77204 19.5V20.5ZM7.45271 20.0634C7.82194 20.3394 8.28231 20.5 8.77204 20.5V19.5C8.50209 19.5 8.25098 19.4116 8.05139 19.2624L7.45271 20.0634ZM0.939953 10.1315C1.84532 14.1755 4.21423 17.6938 7.4568 20.0664L8.04731 19.2594C4.99557 17.0264 2.767 13.7151 1.9158 9.913L0.939953 10.1315ZM0.939236 10.1283L0.939956 10.1315L1.91579 9.91298L1.91507 9.90977L0.939236 10.1283ZM1.29698 9.53626L1.29697 9.53626L1.55734 10.5018L1.55735 10.5018L1.29698 9.53626ZM0.769897 8.454C0.769897 9.0227 0.81686 9.56424 0.938534 10.125L1.9158 9.913C1.81187 9.434 1.7699 8.965 1.7699 8.454H0.769897ZM2.7699 8.454C2.7699 5.17172 5.44856 2.5 8.76505 2.5V1.5C4.90166 1.5 1.7699 4.61406 1.7699 8.454H2.7699ZM2.89274 9.69952C2.80679 9.3028 2.7699 8.90675 2.7699 8.454H1.7699C1.7699 8.96438 1.81177 9.43286 1.91542 9.91127L2.89274 9.69952ZM8.63991 18.4539C5.77836 16.3608 3.68949 13.2564 2.89199 9.6961L1.91617 9.91468C2.76786 13.717 4.9971 17.0283 8.04954 19.261L8.63991 18.4539ZM8.64485 18.4575L8.63988 18.4538L8.04957 19.261L8.05454 19.2647L8.64485 18.4575ZM8.74967 19.1611L8.7497 19.1611L7.9497 18.5611L7.94967 18.5611L8.74967 19.1611ZM8.77204 18.5C8.72159 18.5 8.67965 18.4836 8.64981 18.4612L8.04954 19.261C8.24945 19.411 8.50128 19.5 8.77204 19.5V18.5ZM8.87135 18.4752C8.83992 18.4916 8.80651 18.5 8.77204 18.5V19.5C8.97432 19.5 9.16551 19.4495 9.33323 19.3622L8.87135 18.4752ZM8.88939 18.4547C8.86389 18.4737 8.84207 18.4899 8.80984 18.5132L9.39475 19.3242C9.43332 19.2964 9.46009 19.2765 9.48619 19.2571L8.88939 18.4547ZM9.00735 18.3682C8.95283 18.4075 8.91933 18.4324 8.88939 18.4547L9.48619 19.2571C9.51477 19.2358 9.54367 19.2144 9.59222 19.1793L9.00735 18.3682ZM14.6116 9.80157C13.8132 13.2845 11.7831 16.2983 9.00089 18.373L9.59868 19.1746C12.565 16.9627 14.7332 13.7467 15.5863 10.025L14.6116 9.80157ZM14.6123 9.79852L14.6118 9.80049L15.5861 10.0261L15.5865 10.0241L14.6123 9.79852ZM14.7602 8.454C14.7602 8.92412 14.7114 9.37427 14.6125 9.79761L15.5863 10.025C15.7042 9.52 15.7602 8.993 15.7602 8.454H14.7602ZM8.76505 2.5C12.0815 2.5 14.7602 5.17172 14.7602 8.454H15.7602C15.7602 4.61406 12.6284 1.5 8.76505 1.5V2.5ZM6.88507 8.455C6.88507 7.43035 7.72138 6.591 8.76506 6.591V5.591C7.17401 5.591 5.88507 6.87317 5.88507 8.455H6.88507ZM8.76506 10.317C7.72072 10.317 6.88507 9.47799 6.88507 8.455H5.88507C5.88507 10.0358 7.17398 11.317 8.76506 11.317V10.317ZM10.6461 8.455C10.6461 9.47777 9.81063 10.317 8.76506 10.317V11.317C10.3572 11.317 11.6461 10.0358 11.6461 8.455H10.6461ZM8.76506 6.591C9.80997 6.591 10.6461 7.43057 10.6461 8.455H11.6461C11.6461 6.87317 10.3571 5.591 8.76506 5.591V6.591ZM8.76506 4.591C6.62725 4.591 4.88507 6.31537 4.88507 8.455H5.88507C5.88507 6.87312 7.17406 5.591 8.76506 5.591V4.591ZM12.6461 8.455C12.6461 6.31514 10.9036 4.591 8.76506 4.591V5.591C10.3571 5.591 11.6461 6.87312 11.6461 8.455H12.6461ZM8.76506 12.317C10.9029 12.317 12.6461 10.5946 12.6461 8.455H11.6461C11.6461 10.0359 10.3571 11.317 8.76506 11.317V12.317ZM4.88507 8.455C4.88507 10.5943 6.62795 12.317 8.76506 12.317V11.317C7.17404 11.317 5.88507 10.0359 5.88507 8.455H4.88507Z" fill="#404040"/>
</svg>
