<svg width="20" height="19" viewBox="0 0 20 19" fill="none" xmlns="http://www.w3.org/2000/svg">
<path d="M19.2882 16.4267L15.5907 12.7273C15.4238 12.5603 15.1975 12.4675 14.9602 12.4675H14.3557C15.3793 11.1577 15.9875 9.5102 15.9875 7.718C15.9875 3.45455 12.5347 0 8.27353 0C4.01231 0 0.55957 3.45455 0.55957 7.718C0.55957 11.9814 4.01231 15.436 8.27353 15.436C10.0648 15.436 11.7114 14.8275 13.0206 13.8033V14.4082C13.0206 14.6456 13.1133 14.872 13.2802 15.039L16.9777 18.7384C17.3263 19.0872 17.89 19.0872 18.2349 18.7384L19.2845 17.6883C19.6331 17.3395 19.6331 16.7755 19.2882 16.4267ZM8.27353 12.4675C5.65152 12.4675 3.52648 10.3451 3.52648 7.718C3.52648 5.09462 5.64782 2.96846 8.27353 2.96846C10.8955 2.96846 13.0206 5.09091 13.0206 7.718C13.0206 10.3414 10.8992 12.4675 8.27353 12.4675Z" fill="#404040"/>
</svg>
